<svg id="svg" version="1.1" xmlns="http://www.w3.org/2000/svg" xmlns:xlink="http://www.w3.org/1999/xlink" width="400" height="629.6875" viewBox="0, 0, 400,629.6875"><g id="svgg"><path id="path0" d="M90.161 256.719 C 90.251 259.007,90.555 262.282,90.930 265.000 C 91.197 266.943,91.658 270.298,92.025 272.969 C 92.233 274.486,93.925 284.504,94.366 286.825 C 94.871 289.488,97.438 300.822,98.256 303.997 L 99.003 306.900 98.330 307.301 C 97.959 307.522,96.742 308.246,95.625 308.909 C 54.274 333.458,20.409 378.149,7.656 425.000 C 7.212 426.633,6.646 428.672,6.398 429.531 C 6.151 430.391,5.918 431.621,5.879 432.266 C 5.841 432.910,5.707 433.438,5.581 433.438 C 5.454 433.438,5.361 433.684,5.374 433.984 C 5.386 434.285,5.292 434.777,5.165 435.078 C 4.945 435.598,7.297 435.625,52.059 435.625 L 99.185 435.625 100.374 434.801 C 101.491 434.027,102.030 433.444,101.172 433.938 C 100.945 434.069,100.890 434.044,101.042 433.878 C 101.185 433.722,101.396 433.589,101.510 433.583 C 102.003 433.557,103.129 432.760,102.991 432.536 C 102.907 432.401,103.333 432.055,103.936 431.767 C 104.540 431.480,104.945 431.101,104.837 430.927 C 104.729 430.752,104.780 430.648,104.949 430.695 C 105.303 430.794,105.598 430.599,109.419 427.739 C 110.966 426.582,112.643 425.391,113.147 425.094 C 113.650 424.796,114.063 424.442,114.063 424.308 C 114.063 424.173,114.216 424.063,114.403 424.063 C 114.591 424.063,115.540 423.524,116.513 422.866 C 127.231 415.613,142.424 408.540,155.781 404.584 C 159.820 403.388,164.426 402.188,164.974 402.188 C 165.211 402.188,165.313 405.723,165.314 413.984 C 165.314 420.473,165.406 427.996,165.519 430.703 L 165.723 435.625 200.001 435.625 L 234.279 435.625 234.482 431.641 C 234.594 429.449,234.686 421.926,234.686 414.922 C 234.687 405.988,234.789 402.188,235.026 402.188 C 237.512 402.188,252.111 406.948,260.156 410.383 C 270.056 414.609,285.633 423.433,289.688 427.111 C 290.117 427.500,290.737 427.905,291.064 428.009 C 291.392 428.113,291.971 428.533,292.350 428.943 C 292.730 429.352,293.130 429.688,293.239 429.688 C 293.418 429.688,293.734 429.948,295.339 431.421 C 295.611 431.671,295.912 431.875,296.009 431.875 C 296.105 431.875,296.635 432.296,297.186 432.811 C 297.737 433.326,298.350 433.655,298.547 433.542 C 298.745 433.430,298.807 433.447,298.687 433.581 C 298.458 433.835,299.191 434.739,299.570 434.671 C 299.690 434.649,299.912 434.853,300.063 435.124 C 300.313 435.570,304.878 435.618,347.406 435.623 C 379.793 435.627,394.595 435.731,394.867 435.957 C 395.274 436.295,394.696 433.432,394.075 432.031 C 393.807 431.428,393.586 430.479,393.294 428.676 C 393.080 427.353,390.744 419.428,389.324 415.204 C 374.875 372.245,344.773 334.124,306.321 310.092 C 303.790 308.510,301.564 307.104,301.374 306.967 C 301.132 306.793,301.434 305.091,302.388 301.250 C 304.292 293.584,305.985 285.436,307.014 278.984 C 307.281 277.309,307.707 274.637,307.960 273.047 C 308.213 271.457,308.571 268.891,308.755 267.344 C 308.940 265.797,309.150 264.180,309.222 263.750 C 309.295 263.320,309.384 261.984,309.419 260.781 C 309.455 259.578,309.577 258.453,309.691 258.281 C 309.804 258.109,309.885 257.336,309.871 256.563 L 309.844 255.156 199.965 255.000 L 90.087 254.844 90.161 256.719 M141.055 600.781 C 141.065 608.859,141.117 613.746,141.171 611.641 L 141.269 607.813 156.420 607.813 L 171.571 607.813 171.489 598.047 L 171.406 588.281 156.348 588.200 L 141.289 588.119 141.163 587.106 C 141.094 586.549,141.045 592.703,141.055 600.781 M228.646 588.333 C 228.531 588.448,228.438 592.878,228.438 598.177 L 228.438 607.813 243.581 607.813 L 258.724 607.813 258.830 610.234 C 258.889 611.566,258.964 608.930,258.998 604.375 C 259.032 599.820,258.969 594.301,258.857 592.109 L 258.654 588.125 243.754 588.125 C 235.559 588.125,228.760 588.219,228.646 588.333 " stroke="none" fill="#d03042" fill-rule="evenodd"></path><path id="path1" d="M181.537 5.547 C 162.432 24.994,147.266 44.242,134.570 65.156 C 133.423 67.047,132.354 68.805,132.195 69.063 C 126.557 78.208,112.567 106.109,113.268 106.809 C 113.362 106.904,113.206 107.238,112.921 107.553 C 112.636 107.867,112.530 108.127,112.686 108.130 C 112.841 108.132,112.786 108.251,112.562 108.392 C 112.339 108.534,112.139 108.989,112.117 109.403 C 112.096 109.817,111.881 110.390,111.641 110.676 C 111.400 110.961,111.171 111.383,111.133 111.613 C 111.095 111.843,110.895 112.338,110.688 112.714 C 110.482 113.089,110.313 113.546,110.313 113.729 C 110.313 113.963,121.753 114.063,148.750 114.063 L 187.188 114.063 187.188 57.188 C 187.188 25.906,187.073 0.313,186.933 0.313 C 186.794 0.313,184.365 2.668,181.537 5.547 M212.813 57.188 L 212.813 114.063 251.250 114.063 C 290.795 114.063,290.439 114.073,289.417 112.953 C 289.268 112.790,288.926 112.023,288.659 111.250 C 286.158 104.030,277.320 85.622,271.403 75.313 C 270.072 72.992,268.824 70.813,268.630 70.469 C 261.621 58.039,249.202 40.393,238.016 26.968 C 230.969 18.511,213.951 0.313,213.089 0.313 C 212.930 0.313,212.813 24.361,212.813 57.188 M140.942 565.234 C 140.944 568.457,141.031 571.410,141.134 571.797 L 141.323 572.500 156.260 572.500 C 167.918 572.500,171.233 572.586,171.356 572.891 C 171.442 573.105,171.524 570.152,171.538 566.328 L 171.563 559.375 156.250 559.375 L 140.938 559.375 140.942 565.234 M228.462 566.328 C 228.476 570.152,228.558 573.105,228.644 572.891 C 228.767 572.586,232.085 572.500,243.755 572.500 L 258.708 572.500 258.839 573.359 C 258.910 573.832,258.990 570.879,259.016 566.797 L 259.063 559.375 243.750 559.375 L 228.438 559.375 228.462 566.328 " stroke="none" fill="#a90e23" fill-rule="evenodd"></path><path id="path2" d="M165.379 437.891 C 165.332 444.282,165.211 446.875,164.962 446.875 C 163.527 446.875,157.239 448.032,153.795 448.929 C 127.042 455.900,111.431 476.425,109.394 507.304 C 109.103 511.711,109.002 540.488,109.283 538.672 L 109.417 537.813 200.000 537.813 L 290.583 537.813 290.717 538.672 C 290.962 540.256,290.857 511.144,290.603 507.188 C 288.601 476.023,272.170 455.015,244.688 448.482 C 242.368 447.931,236.029 446.875,235.038 446.875 C 234.789 446.875,234.669 444.446,234.623 438.516 C 234.588 433.918,234.512 431.387,234.455 432.891 L 234.351 435.625 199.998 435.625 L 165.646 435.625 165.546 432.266 C 165.490 430.418,165.415 432.949,165.379 437.891 M52.266 435.547 C 7.544 435.623,4.997 435.656,4.952 436.173 C 4.885 436.944,4.811 437.277,4.588 437.813 C 4.343 438.402,4.262 438.826,2.978 446.250 C -1.772 473.717,-0.243 505.691,7.030 531.016 C 7.117 531.316,7.258 531.844,7.344 532.188 C 7.699 533.609,7.797 533.986,8.263 535.718 C 8.531 536.715,8.750 537.594,8.750 537.671 C 8.750 537.749,17.387 537.813,27.943 537.813 C 43.007 537.813,47.168 537.897,47.289 538.203 C 47.373 538.418,47.415 537.785,47.382 536.797 C 47.349 535.809,47.426 535.000,47.554 535.000 C 47.682 535.000,47.772 534.613,47.754 534.141 C 47.735 533.668,47.946 531.875,48.223 530.156 C 48.500 528.438,48.787 526.539,48.862 525.938 C 50.985 508.894,60.641 484.381,72.128 466.875 C 77.518 458.661,83.426 451.418,91.484 443.143 C 92.902 441.687,94.063 440.385,94.063 440.248 C 94.063 440.112,94.183 440.000,94.331 440.000 C 94.479 440.000,95.087 439.543,95.682 438.984 C 96.277 438.426,97.454 437.371,98.298 436.641 C 99.141 435.910,99.764 435.347,99.681 435.390 C 99.599 435.432,78.262 435.503,52.266 435.547 M300.703 435.660 C 300.829 435.968,303.767 438.438,304.007 438.438 C 304.128 438.438,304.366 438.751,304.535 439.135 C 304.705 439.519,305.159 439.988,305.545 440.179 C 305.931 440.369,306.153 440.617,306.040 440.731 C 305.926 440.845,305.978 440.938,306.154 440.938 C 307.283 440.938,318.237 453.432,323.962 461.250 C 336.944 478.978,348.184 505.264,350.795 524.003 C 350.883 524.637,351.036 525.508,351.133 525.938 C 351.315 526.740,351.337 526.865,351.748 529.531 C 352.115 531.910,352.373 534.152,352.593 536.875 L 352.656 537.656 371.814 537.737 C 386.967 537.800,390.926 537.898,390.752 538.206 C 390.602 538.473,390.639 538.496,390.872 538.281 C 391.059 538.109,391.259 537.617,391.317 537.188 C 391.375 536.758,391.506 536.266,391.608 536.094 C 391.710 535.922,391.754 535.535,391.706 535.234 C 391.657 534.934,391.769 534.688,391.955 534.688 C 392.140 534.688,392.199 534.595,392.086 534.482 C 391.973 534.369,392.034 534.091,392.221 533.865 C 392.409 533.639,392.563 532.949,392.562 532.331 C 392.562 531.714,392.645 531.291,392.746 531.392 C 392.920 531.566,394.499 525.924,394.841 523.906 C 394.929 523.391,395.347 521.352,395.770 519.375 C 400.118 499.090,400.910 472.486,397.802 451.094 C 396.957 445.275,396.862 444.690,396.513 443.125 C 396.340 442.352,396.142 441.297,396.074 440.781 C 396.006 440.266,395.850 439.422,395.727 438.906 C 395.604 438.391,395.496 437.875,395.486 437.760 C 395.477 437.646,395.373 437.456,395.256 437.339 C 395.139 437.222,395.110 436.952,395.192 436.738 C 395.274 436.525,395.145 436.188,394.907 435.990 C 394.443 435.605,300.546 435.276,300.703 435.660 M141.188 612.456 C 141.136 615.010,141.165 617.506,141.253 618.003 L 141.412 618.906 156.233 618.987 C 167.882 619.051,171.107 618.984,171.303 618.675 C 171.440 618.458,171.555 615.926,171.558 613.047 L 171.563 607.813 156.422 607.813 L 141.281 607.813 141.188 612.456 M228.442 613.047 C 228.445 615.926,228.557 618.454,228.691 618.666 C 228.878 618.959,232.452 619.070,243.808 619.135 L 258.680 619.219 258.880 617.265 C 258.990 616.191,258.985 613.624,258.868 611.562 L 258.656 607.813 243.547 607.813 L 228.438 607.813 228.442 613.047 " stroke="none" fill="#e44453" fill-rule="evenodd"></path><path id="path3" d="M110.051 114.297 C 110.157 114.780,109.608 116.250,109.323 116.250 C 109.159 116.250,109.107 116.381,109.205 116.541 C 109.304 116.701,109.248 116.916,109.081 117.020 C 108.914 117.123,108.857 117.414,108.953 117.666 C 109.051 117.922,108.953 118.125,108.731 118.125 C 108.512 118.125,108.421 118.213,108.528 118.320 C 108.635 118.427,108.436 119.077,108.086 119.764 C 107.484 120.945,107.151 121.848,105.236 127.500 C 95.785 155.401,90.607 182.323,89.039 211.708 C 88.396 223.773,89.111 254.274,90.045 254.636 C 90.194 254.694,90.259 254.834,90.188 254.949 C 90.117 255.063,139.581 255.122,200.108 255.080 L 310.156 255.003 310.584 250.080 C 311.167 243.368,311.245 212.942,310.697 206.250 C 308.941 184.835,304.386 157.852,300.596 146.406 C 300.425 145.891,299.743 143.570,299.081 141.250 C 296.918 133.678,293.621 123.741,292.646 121.855 C 292.407 121.394,292.301 120.929,292.408 120.821 C 292.516 120.713,292.432 120.625,292.221 120.625 C 292.010 120.625,291.910 120.509,291.997 120.368 C 292.084 120.227,291.965 119.745,291.733 119.297 C 291.500 118.848,291.390 118.401,291.488 118.303 C 291.586 118.205,291.533 118.125,291.369 118.125 C 291.205 118.125,291.048 117.821,291.020 117.450 C 290.992 117.079,290.786 116.659,290.563 116.517 C 290.339 116.376,290.279 116.257,290.429 116.255 C 290.579 116.252,290.526 116.039,290.313 115.781 C 290.099 115.523,290.028 115.313,290.156 115.313 C 290.284 115.312,290.232 115.124,290.041 114.893 C 289.850 114.662,289.785 114.381,289.899 114.268 C 290.012 114.155,272.712 114.063,251.455 114.063 L 212.807 114.063 212.888 129.580 L 212.969 145.097 214.531 145.629 C 225.482 149.358,235.420 159.905,239.161 171.766 C 250.073 206.364,213.943 237.013,181.430 220.738 C 156.494 208.255,151.186 173.892,171.227 154.685 C 174.840 151.222,179.086 148.405,183.734 146.385 L 187.188 144.885 187.188 129.474 L 187.188 114.063 148.594 114.063 C 127.367 114.063,110.023 114.168,110.051 114.297 M140.974 578.316 C 140.954 582.116,141.027 585.875,141.135 586.669 L 141.333 588.113 156.448 588.197 L 171.563 588.281 171.563 580.885 C 171.563 576.817,171.477 573.266,171.373 572.994 C 171.204 572.553,169.578 572.500,156.239 572.500 C 142.270 572.500,141.287 572.464,141.153 571.953 C 141.074 571.652,140.994 574.516,140.974 578.316 M228.627 572.994 C 228.523 573.266,228.437 576.817,228.437 580.885 L 228.437 588.281 243.581 588.197 L 258.725 588.113 258.830 590.854 C 258.887 592.361,258.961 589.375,258.995 584.219 C 259.028 579.063,258.968 574.316,258.862 573.672 L 258.668 572.500 243.743 572.500 C 230.421 572.500,228.796 572.553,228.627 572.994 " stroke="none" fill="#b4142c" fill-rule="evenodd"></path><path id="path4" d="M307.969 442.813 C 308.815 443.672,309.578 444.375,309.664 444.375 C 309.750 444.375,309.128 443.672,308.281 442.813 C 307.435 441.953,306.672 441.250,306.586 441.250 C 306.500 441.250,307.122 441.953,307.969 442.813 M91.387 443.203 L 90.469 444.219 91.484 443.301 C 92.431 442.445,92.644 442.188,92.402 442.188 C 92.348 442.188,91.891 442.645,91.387 443.203 M352.714 538.281 C 353.209 539.780,353.271 555.057,352.809 561.563 C 351.170 584.631,344.867 605.912,333.812 625.703 C 331.481 629.878,331.650 629.875,336.184 625.659 C 344.895 617.560,352.722 608.798,360.642 598.281 C 362.634 595.637,369.242 585.837,370.864 583.125 C 375.314 575.681,381.243 564.160,383.476 558.619 C 383.816 557.773,384.347 556.508,384.654 555.806 C 385.359 554.199,386.082 552.392,386.101 552.188 C 386.109 552.102,386.292 551.715,386.506 551.328 C 386.721 550.941,386.819 550.625,386.723 550.625 C 386.628 550.625,386.834 550.068,387.181 549.387 C 387.528 548.707,387.813 547.931,387.813 547.664 C 387.813 547.397,387.940 546.935,388.097 546.636 C 388.618 545.642,389.688 542.735,389.688 542.313 C 389.688 542.084,389.910 541.242,390.181 540.442 C 391.179 537.505,393.420 537.833,371.704 537.739 C 352.629 537.657,352.509 537.660,352.714 538.281 M9.265 538.750 C 9.523 539.265,9.786 540.105,9.850 540.615 C 9.915 541.126,10.121 541.829,10.307 542.178 C 10.494 542.527,10.544 542.813,10.417 542.813 C 10.291 542.813,10.356 542.981,10.563 543.188 C 10.769 543.394,10.938 543.816,10.938 544.125 C 10.938 544.434,11.093 544.688,11.283 544.688 C 11.474 544.688,11.557 544.877,11.468 545.108 C 11.379 545.339,11.584 546.148,11.923 546.905 C 12.262 547.662,12.532 548.352,12.524 548.438 C 12.484 548.828,13.648 551.765,17.044 559.844 C 21.367 570.127,28.657 582.925,37.492 595.738 C 43.608 604.610,54.667 617.183,63.816 625.668 C 68.299 629.825,68.497 629.853,66.349 626.016 C 52.074 600.517,45.180 570.171,47.005 540.859 L 47.195 537.813 27.996 537.813 L 8.798 537.813 9.265 538.750 M109.375 538.594 L 109.375 539.375 200.000 539.375 L 290.625 539.375 290.625 538.594 L 290.625 537.813 200.000 537.813 L 109.375 537.813 109.375 538.594 M141.467 619.844 C 142.052 623.075,144.719 626.393,148.052 628.040 L 150.438 629.219 156.391 629.219 L 162.344 629.219 164.423 628.201 C 167.651 626.622,170.568 623.066,171.083 620.084 L 171.257 619.074 156.277 618.990 L 141.297 618.906 141.467 619.844 M228.861 620.006 C 230.060 626.005,234.754 629.112,242.913 629.311 C 251.759 629.526,256.408 626.953,258.254 620.821 C 258.827 618.916,260.060 619.063,243.503 619.063 L 228.672 619.063 228.861 620.006 " stroke="none" fill="#ed4757" fill-rule="evenodd"></path></g></svg>
